<?xml version="1.0" encoding="UTF-8" standalone="no"?>
<svg
   xmlns:dc="http://purl.org/dc/elements/1.1/"
   xmlns:cc="http://creativecommons.org/ns#"
   xmlns:rdf="http://www.w3.org/1999/02/22-rdf-syntax-ns#"
   xmlns:svg="http://www.w3.org/2000/svg"
   xmlns="http://www.w3.org/2000/svg"
   xmlns:sodipodi="http://sodipodi.sourceforge.net/DTD/sodipodi-0.dtd"
   xmlns:inkscape="http://www.inkscape.org/namespaces/inkscape"
   width="200"
   height="200"
   viewBox="0 0 52.916664 52.91667"
   version="1.1"
   id="svg8"
   inkscape:version="1.0.2 (1.0.2+r75+1)"
   sodipodi:docname="i.svg"
   inkscape:export-filename="i Logo.png"
   inkscape:export-xdpi="96"
   inkscape:export-ydpi="96">
  <defs
     id="defs2" />
  <sodipodi:namedview
     id="base"
     pagecolor="#ffffff"
     bordercolor="#666666"
     borderopacity="1.0"
     inkscape:pageopacity="0.0"
     inkscape:pageshadow="2"
     inkscape:zoom="0.532"
     inkscape:cx="500"
     inkscape:cy="500"
     inkscape:document-units="px"
     inkscape:current-layer="layer1"
     showgrid="false"
     units="px"
     inkscape:window-width="1366"
     inkscape:window-height="700"
     inkscape:window-x="0"
     inkscape:window-y="32"
     inkscape:window-maximized="1"
     inkscape:document-rotation="0" />
  <metadata
     id="metadata5">
    <rdf:RDF>
      <cc:Work
         rdf:about="">
        <dc:format>image/svg+xml</dc:format>
        <dc:type
           rdf:resource="http://purl.org/dc/dcmitype/StillImage" />
        <dc:title></dc:title>
      </cc:Work>
    </rdf:RDF>
  </metadata>
  <g
     inkscape:label="Layer 1"
     inkscape:groupmode="layer"
     id="layer1"
     transform="translate(0,-32.416643)">
    <path
       id="path971"
       style="fill:#f2f2f2;fill-opacity:1;stroke-width:0.316702"
       d="M 28.622852,32.505323 A 26.458318,26.458318 0 0 0 0.40195513,54.280519 26.458318,26.458318 0 0 0 19.475819,84.395253 c -0.101233,-0.08332 -0.201234,-0.167978 -0.295176,-0.258692 -0.114593,-0.110654 -0.223662,-0.226676 -0.326801,-0.347472 -0.10314,-0.120796 -0.200331,-0.246422 -0.291352,-0.376412 -0.09102,-0.129988 -0.175907,-0.264326 -0.254144,-0.402558 -0.07824,-0.138232 -0.149874,-0.280288 -0.214665,-0.425814 -0.06479,-0.145526 -0.122645,-0.29451 -0.173322,-0.446382 -0.05068,-0.15187 -0.09422,-0.306684 -0.130121,-0.46395 -0.0359,-0.157264 -0.06419,-0.31702 -0.08465,-0.47873 -0.02046,-0.16171 -0.03307,-0.32541 -0.03741,-0.490616 -0.0044,-0.165206 -4.4e-4,-0.331854 0.01199,-0.499606 0.01242,-0.167754 0.03339,-0.336564 0.06325,-0.505914 l 4.846524,-27.48585 c 0.02659,-0.150828 0.05971,-0.298862 0.09891,-0.443796 0.0392,-0.144936 0.08446,-0.286724 0.135598,-0.425298 0.05114,-0.138574 0.108136,-0.273916 0.170534,-0.40566 0.0624,-0.131742 0.1302,-0.259928 0.20319,-0.384368 0.07299,-0.124442 0.15108,-0.245168 0.233992,-0.361838 0.08291,-0.116672 0.170662,-0.229328 0.262826,-0.337758 0.09216,-0.10843 0.188746,-0.212612 0.28949,-0.312332 0.100746,-0.09972 0.205642,-0.19492 0.314296,-0.28546 0.108654,-0.09054 0.221142,-0.176354 0.337034,-0.257246 0.115892,-0.08089 0.235244,-0.156914 0.357704,-0.227686 0.122462,-0.07077 0.24795,-0.136392 0.376308,-0.196576 0.128358,-0.06018 0.25957,-0.114896 0.393154,-0.164022 0.133584,-0.04913 0.269586,-0.09263 0.407726,-0.130224 0.138142,-0.0376 0.278414,-0.06928 0.42044,-0.09488 0.142026,-0.0256 0.285844,-0.04506 0.431084,-0.05819 0.14524,-0.01312 0.29188,-0.01996 0.439664,-0.02015 0.14519,-1.9e-4 0.291416,0.006 0.438422,0.0188 0.147004,0.01276 0.294788,0.03206 0.44297,0.05819 0.16935,0.02986 0.335138,0.06789 0.497024,0.113584 0.161886,0.0457 0.319908,0.09909 0.473666,0.159682 0.153756,0.06059 0.303278,0.12835 0.44824,0.20288 0.144964,0.07453 0.285348,0.155772 0.420854,0.243294 0.135504,0.08752 0.266118,0.18135 0.3915,0.280912 0.12538,0.09956 0.245488,0.204882 0.360082,0.315536 0.114592,0.110654 0.223662,0.226676 0.3268,0.347472 0.10314,0.120796 0.20033,0.246422 0.291352,0.376412 0.09102,0.129988 0.175906,0.264326 0.254144,0.402558 0.07824,0.138234 0.149874,0.280288 0.214664,0.425814 0.06479,0.145526 0.122646,0.29451 0.173322,0.44638 0.05068,0.151872 0.09422,0.306686 0.130122,0.463952 0.0359,0.157264 0.06419,0.31702 0.08465,0.47873 0.02046,0.16171 0.03306,0.325408 0.03741,0.490616 0.0043,0.165206 4e-4,0.331854 -0.01198,0.499606 -0.01242,0.167754 -0.03339,0.336564 -0.06325,0.505912 l -4.84653,27.485758 c -0.02986,0.16935 -0.06788,0.335138 -0.113584,0.497024 -0.0457,0.161886 -0.09909,0.31991 -0.15968,0.473666 -0.06059,0.153758 -0.128352,0.303278 -0.202882,0.448242 -0.07453,0.144962 -0.155772,0.285348 -0.243292,0.420852 -0.08752,0.135504 -0.181352,0.26612 -0.280914,0.3915 -0.09956,0.125382 -0.204882,0.245488 -0.315536,0.360082 -0.110654,0.114592 -0.226676,0.223662 -0.347472,0.326802 -0.120796,0.103138 -0.246422,0.20033 -0.37641,0.29135 -0.12999,0.09102 -0.264328,0.175906 -0.40256,0.254146 -0.138232,0.07824 -0.280288,0.149872 -0.425814,0.214662 -0.119382,0.05315 -0.242468,0.09852 -0.366178,0.142214 A 26.458318,26.458318 0 0 0 52.514712,63.469411 26.458318,26.458318 0 0 0 33.440848,33.354676 c 0.101234,0.08332 0.201234,0.167979 0.295176,0.258692 0.114594,0.110655 0.223662,0.226676 0.326802,0.347472 0.10314,0.120797 0.20033,0.246422 0.291352,0.376411 0.09102,0.12999 0.175906,0.264327 0.254144,0.40256 0.07824,0.138232 0.149874,0.280287 0.214664,0.425813 0.06479,0.145526 0.122646,0.29451 0.173322,0.446381 0.05068,0.15187 0.09422,0.306685 0.130122,0.463951 0.0359,0.157265 0.06419,0.317019 0.08465,0.47873 0.02046,0.16171 0.03306,0.325409 0.03741,0.490615 0.0043,0.165207 4e-4,0.331855 -0.01198,0.499608 -0.01242,0.167753 -0.03339,0.336562 -0.06325,0.505912 -0.02986,0.169349 -0.06788,0.335138 -0.113584,0.497023 -0.0457,0.161886 -0.09909,0.319909 -0.15968,0.473667 -0.06059,0.153756 -0.12835,0.303278 -0.202882,0.448241 -0.07453,0.144963 -0.155872,0.285348 -0.243396,0.420852 -0.08752,0.135505 -0.181244,0.266119 -0.28081,0.3915 -0.09956,0.125382 -0.204982,0.245489 -0.315638,0.360082 -0.110658,0.114592 -0.22657,0.223662 -0.34737,0.326801 -0.1208,0.10314 -0.246418,0.20033 -0.37641,0.291352 -0.129992,0.09102 -0.264324,0.175906 -0.40256,0.254144 -0.138236,0.07824 -0.280388,0.149874 -0.425916,0.214664 -0.14553,0.06479 -0.294508,0.122645 -0.446382,0.173323 -0.151872,0.05068 -0.306682,0.09422 -0.46395,0.130121 -0.157268,0.0359 -0.316914,0.06419 -0.478626,0.08465 -0.161714,0.02046 -0.325512,0.03306 -0.49072,0.03741 -0.165208,0.0044 -0.331854,4.4e-4 -0.499608,-0.01199 -0.167752,-0.01242 -0.336562,-0.03339 -0.505912,-0.06325 -0.169348,-0.02986 -0.335138,-0.06788 -0.497022,-0.113585 -0.161886,-0.0457 -0.319912,-0.09909 -0.473666,-0.15968 -0.153756,-0.06059 -0.30328,-0.128351 -0.448242,-0.202882 -0.144962,-0.07453 -0.28535,-0.155771 -0.420852,-0.243292 -0.135502,-0.08752 -0.266122,-0.181351 -0.3915,-0.280913 -0.12538,-0.09956 -0.245492,-0.204882 -0.360082,-0.315536 -0.11459,-0.110655 -0.223562,-0.226676 -0.326698,-0.347472 -0.103136,-0.120797 -0.200436,-0.246422 -0.291456,-0.376411 -0.09102,-0.12999 -0.175806,-0.264327 -0.25404,-0.402559 -0.07824,-0.138233 -0.149878,-0.280288 -0.214664,-0.425814 -0.06479,-0.145526 -0.122752,-0.29451 -0.173426,-0.446381 -0.05067,-0.15187 -0.09412,-0.306685 -0.130018,-0.46395 -0.0359,-0.157266 -0.06419,-0.31702 -0.08465,-0.478731 -0.02045,-0.16171 -0.03307,-0.325409 -0.03741,-0.490615 -0.0043,-0.165207 -4e-4,-0.331855 0.012,-0.499608 0.01242,-0.167753 0.03339,-0.336562 0.06325,-0.505912 0.02659,-0.150827 0.05971,-0.298862 0.09891,-0.443797 0.0392,-0.144935 0.08446,-0.286723 0.135598,-0.425297 0.05113,-0.138573 0.108134,-0.273917 0.170532,-0.405659 0.0624,-0.131743 0.130202,-0.259928 0.203192,-0.384369 0.07299,-0.124442 0.151078,-0.245167 0.233992,-0.361839 0.08291,-0.116671 0.170662,-0.229326 0.262826,-0.337757 0.09216,-0.10843 0.188746,-0.212611 0.28949,-0.312332 0.100744,-0.09972 0.205642,-0.194919 0.314296,-0.28546 0.108654,-0.09054 0.221142,-0.176354 0.337034,-0.257245 0.115892,-0.08089 0.235244,-0.156914 0.357704,-0.227687 0.12246,-0.07077 0.24795,-0.136393 0.376308,-0.196577 0.128358,-0.06018 0.259568,-0.114895 0.393154,-0.16402 0.01916,-0.007 0.03923,-0.01189 0.0585,-0.01871 z" />
  </g>
</svg>
