<?xml version="1.0" encoding="UTF-8" standalone="no"?>
<svg
   xmlns:dc="http://purl.org/dc/elements/1.1/"
   xmlns:cc="http://creativecommons.org/ns#"
   xmlns:rdf="http://www.w3.org/1999/02/22-rdf-syntax-ns#"
   xmlns:svg="http://www.w3.org/2000/svg"
   xmlns="http://www.w3.org/2000/svg"
   xmlns:sodipodi="http://sodipodi.sourceforge.net/DTD/sodipodi-0.dtd"
   xmlns:inkscape="http://www.inkscape.org/namespaces/inkscape"
   width="200"
   height="200"
   viewBox="0 0 24.32304 24.32"
   preserveAspectRatio="xMinYMin meet"
   version="1.1"
   id="svg4"
   sodipodi:docname="codeigniter.svg"
   inkscape:version="1.0.2 (1.0.2+r75+1)">
  <metadata
     id="metadata10">
    <rdf:RDF>
      <cc:Work
         rdf:about="">
        <dc:format>image/svg+xml</dc:format>
        <dc:type
           rdf:resource="http://purl.org/dc/dcmitype/StillImage" />
        <dc:title></dc:title>
      </cc:Work>
    </rdf:RDF>
  </metadata>
  <defs
     id="defs8" />
  <sodipodi:namedview
     pagecolor="#ffffff"
     bordercolor="#666666"
     borderopacity="1"
     objecttolerance="10"
     gridtolerance="10"
     guidetolerance="10"
     inkscape:pageopacity="0"
     inkscape:pageshadow="2"
     inkscape:window-width="1366"
     inkscape:window-height="700"
     id="namedview6"
     showgrid="false"
     inkscape:zoom="0.536"
     inkscape:cx="126.37405"
     inkscape:cy="500"
     inkscape:window-x="0"
     inkscape:window-y="32"
     inkscape:window-maximized="1"
     inkscape:current-layer="layer1"
     inkscape:document-rotation="0" />
  <g
     inkscape:groupmode="layer"
     id="layer1"
     inkscape:label="Layer 1">
    <path
       d="m 2.9462025,23.043597 c -0.417391,0 -0.538743,-0.243025 -0.538743,-0.607157 0,-0.12135 0.01524,-0.258262 0.03401,-0.40247 0.09143,-0.629699 0.314647,-0.989981 0.853389,-0.989981 0.364375,0 0.542031,0.162978 0.542031,0.458938 v 0.144289 h 0.361487 c 0.004,0 0.004,-0.132823 0.004,-0.16306 0,-0.432469 -0.261872,-0.84264 -0.906967,-0.84264 -0.876569,0 -1.237014,0.476182 -1.369834,1.409694 -0.01901,0.125283 -0.0304,0.24222 -0.0304,0.36702 0,0.550215 0.216475,1.0507 0.990461,1.0507 0.588069,0 0.937365,-0.286738 1.14213,-0.63964 l -0.345366,-0.2326 c -0.223774,0.352985 -0.466797,0.446907 -0.736208,0.446907 z M 5.3178865,21.3057 c -0.702121,0 -1.005459,0.360282 -1.107882,1.077323 a 1.8707996,1.8707996 0 0 0 -0.01925,0.250565 c 0,0.462782 0.216315,0.831089 0.815693,0.831089 0.702121,0 1.009549,-0.375765 1.111972,-1.081654 0.01139,-0.09095 0.01901,-0.174448 0.01901,-0.25786 1.7e-4,-0.47041 -0.223614,-0.819463 -0.819543,-0.819463 z m 0.292189,1.077565 c -0.07595,0.519972 -0.238932,0.679342 -0.546521,0.679342 -0.246473,0 -0.367824,-0.102502 -0.367824,-0.409852 0,-0.07596 0.0077,-0.166907 0.02278,-0.26949 0.07595,-0.515965 0.227704,-0.675334 0.538822,-0.675334 0.250483,0 0.375523,0.102422 0.375523,0.413539 0,0.07588 -0.0077,0.16322 -0.02278,0.261795 z m 2.292282,-1.704054 -0.117502,0.696589 c -0.0075,0.06055 -0.0037,0.04042 0.01925,0.09737 -0.110042,-0.08341 -0.307508,-0.138596 -0.440329,-0.138596 -0.629936,0 -0.982682,0.285132 -1.096413,1.081977 a 1.5571149,1.5571149 0 0 0 -0.01901,0.254333 c 0,0.580767 0.341436,0.797244 0.800453,0.797244 0.193777,0 0.383383,0.004 0.531203,-0.121032 l 0.03778,0.236047 h 0.364375 l 0.42493,-2.903931 z m -0.360445,2.273194 c -0.170598,0.102182 -0.337426,0.12528 -0.439848,0.12528 -0.277031,0 -0.352906,-0.144293 -0.352906,-0.375603 0,-0.08734 0.01139,-0.189529 0.02671,-0.299892 0.0871,-0.603225 0.28072,-0.709659 0.531202,-0.709659 0.162979,0 0.2881,0.02671 0.406002,0.09136 z M 9.5152155,21.3057 c -0.694582,0 -1.020619,0.329887 -1.130822,1.077323 -0.01155,0.09119 -0.01917,0.17854 -0.01917,0.261952 0,0.512275 0.261952,0.819702 0.838472,0.819702 0.447788,0 0.782006,-0.186075 0.9602235,-0.527592 L 9.7806155,22.781487 c -0.109882,0.166823 -0.257862,0.28072 -0.519734,0.28072 -0.28072,0 -0.394612,-0.07556 -0.394612,-0.326037 0,-0.04941 0.0038,-0.121192 0.01147,-0.121192 h 1.3695935 c 0.01925,-0.193618 0.04171,-0.330448 0.04171,-0.44394 0,-0.379211 -0.14405,-0.86542 -0.7738265,-0.86542 z m 0.261711,0.922285 h -0.834782 c 0.08366,-0.193615 0.223774,-0.493265 0.512274,-0.493265 0.223774,0 0.333977,0.130816 0.333977,0.35467 -2.44e-4,0.03794 -0.0037,0.138595 -0.011469,0.138595 z m 1.9723405,-0.968003 0.04548,-0.387153 h -1.070186 l -0.04532,0.387153 h 0.28072 l -0.303338,1.935928 h -0.281121 l -0.04524,0.387232 h 1.069944 l 0.04572,-0.387232 h -0.280961 l 0.303419,-1.935928 z m 2.174378,0.580769 0.136752,-0.387151 h -0.368065 l -0.265401,0.05478 c -0.14806,-0.09464 -0.349216,-0.165705 -0.538742,-0.165705 -0.542832,0 -1.00554,0.262114 -1.00554,0.857962 0,0.16715 0.06064,0.302055 0.132581,0.39325 -0.113571,0.06055 -0.212305,0.162012 -0.212305,0.298845 0,0.06064 0.02262,0.122717 0.06834,0.1795 -0.227865,0.136832 -0.367823,0.363575 -0.367823,0.628974 0,0.512513 0.534892,0.621835 0.944663,0.621835 0.515963,0 1.130821,-0.117902 1.130821,-0.774387 0,-0.223772 -0.14036,-0.398622 -0.546362,-0.474497 l -0.732279,-0.136828 c -0.08341,-0.0153 -0.102423,-0.04187 -0.102423,-0.07981 0,-0.05695 0.03449,-0.08711 0.09111,-0.08711 l 0.04941,0.0075 c 0.09865,0.0227 0.212545,0.03425 0.330046,0.03425 0.527594,0 0.998,-0.227787 0.998,-0.819705 0,-0.08357 -0.01508,-0.14012 -0.05302,-0.231313 0.06441,0.03048 0.14806,0.0798 0.181907,0.0798 h 0.128329 z m -1.043236,1.570671 c 0.14405,0.02671 0.193296,0.07972 0.193296,0.174607 0,0.307428 -0.330127,0.345365 -0.56906,0.345365 -0.364295,0 -0.500805,-0.08711 -0.500805,-0.28088 0,-0.170839 0.04917,-0.250322 0.163219,-0.371912 z M 12.72457,22.41751 c -0.220085,0 -0.341517,-0.07956 -0.341517,-0.26949 0,-0.28072 0.163219,-0.443938 0.447789,-0.443938 0.227704,0 0.337827,0.09488 0.337827,0.280558 0,0.280883 -0.15953,0.43287 -0.444099,0.43287 z m 2.547094,-1.11181 c -0.212545,0 -0.402072,0.104267 -0.637475,0.290025 L 14.600099,21.4536 h -0.417552 l -0.29211,2.129462 h 0.504655 L 14.615257,21.9682 c 0.14806,-0.09104 0.330047,-0.223213 0.485647,-0.223213 0.189605,0 0.258102,0.09152 0.258102,0.265963 0,0.04178 -0.004,0.165543 -0.01163,0.21102 l -0.185677,1.361092 h 0.504735 l 0.185677,-1.372159 c 0.0077,-0.06417 0.01524,-0.169955 0.01524,-0.230513 2.45e-4,-0.360925 -0.170758,-0.67469 -0.595689,-0.67469 z m 1.554386,1.74391 0.0038,-0.05213 0.219924,-1.543877 h -0.838631 l -0.05286,0.387151 h 0.367823 c -0.0304,0 -0.04933,0.03393 -0.05302,0.06449 l -0.151828,1.028239 c -0.0075,0.04949 -0.01123,0.152472 -0.01123,0.193935 0,0.265562 0.144049,0.455732 0.439848,0.455732 h 0.258102 l 0.05695,-0.387232 H 16.90187 c -0.05711,0 -0.07587,-0.10082 -0.07587,-0.1463 z m 0.326198,-2.370399 h -0.493266 c -0.0304,0 -0.0304,-0.111724 -0.03409,-0.07379 l -0.06849,0.545559 c -0.0039,0.03433 -0.0039,0.10908 0.02647,0.10908 h 0.493506 c 0.0304,0 0.0304,-0.13266 0.03409,-0.167151 l 0.0685,-0.42108 c 0.0038,-0.03793 0.0038,0.0074 -0.02671,0.0074 z m 1.02912,2.383316 c -0.125041,0 -0.185837,-0.05318 -0.185837,-0.16683 l 0.0038,-0.0078 0.159369,-1.047166 h 0.576679 l 0.174449,-0.387151 h -0.698112 l 0.117502,-0.852026 -0.530963,0.169795 -0.09504,0.682231 h -0.307269 l -0.05302,0.387151 h 0.356595 c -0.03409,0.193619 -0.06833,0.06802 -0.07202,0.106114 l -0.13667,0.918195 c -0.0075,0.04187 -0.0075,0.07218 -0.0075,0.109962 0,0.360528 0.265561,0.49543 0.58462,0.49543 0.295799,0 0.534892,-0.08638 0.72097,-0.242222 l -0.235405,-0.28954 c -0.117902,0.07194 -0.197467,0.12384 -0.372154,0.12384 z M 20.033079,21.3057 c -0.694342,0 -1.020619,0.329887 -1.130741,1.077323 -0.0114,0.09119 -0.01901,0.17854 -0.01901,0.261952 0,0.512275 0.261792,0.819702 0.838471,0.819702 0.447789,0 0.782006,-0.186075 0.960063,-0.527592 L 20.29872,22.781487 c -0.109883,0.166823 -0.258022,0.28072 -0.519974,0.28072 -0.28056,0 -0.394613,-0.07556 -0.394613,-0.326037 0,-0.04941 0.0041,-0.121192 0.01172,-0.121192 h 1.369675 c 0.01893,-0.193618 0.04171,-0.330448 0.04171,-0.44394 0,-0.379211 -0.14413,-0.86542 -0.774146,-0.86542 z m 0.261952,0.922285 h -0.834783 c 0.08342,-0.193615 0.223615,-0.493265 0.512275,-0.493265 0.223774,0 0.333977,0.130816 0.333977,0.35467 -1.69e-4,0.03794 -0.0039,0.138595 -0.01147,0.138595 z m 1.908656,-0.922367 c -0.182145,0 -0.352905,0.104431 -0.523744,0.267247 L 21.649623,21.4536 h -0.417229 l -0.292269,2.129462 h 0.508502 l 0.223777,-1.649033 c 0.132899,-0.07948 0.284649,-0.147418 0.428857,-0.147418 0.0912,0 0.178298,-0.01451 0.261713,-0.0032 l 0.06489,-0.439926 c -0.07628,-0.01516 -0.15215,-0.03778 -0.224175,-0.03778 z M 9.3174275,19.153938 c -1.148546,-0.496472 -2.223304,-1.75827 -2.22587,-3.049342 -0.0031,-1.407612 0.88892,-2.602678 1.998407,-3.388052 -0.133383,0.503932 -0.206129,0.964876 0.124319,1.415632 0.307188,0.419076 0.8452085,0.622718 1.3532315,0.512194 1.187046,-0.259866 1.241505,-1.564814 0.53778,-2.325086 -0.695785,-0.75289 -1.3688725,-1.603312 -1.104032,-2.695154 0.13258,-0.547325 0.468642,-1.059999 0.894374,-1.42646 -0.32724,0.859967 0.602667,1.708063 1.215358,2.130506 1.062807,0.732922 2.228918,1.286822 3.206146,2.145986 1.027915,0.902956 1.786983,2.123848 1.63371,3.539882 -0.166106,1.534816 -1.385714,2.602277 -2.753705,3.141178 2.890777,-0.638036 5.877719,-2.881632 5.938917,-6.087616 0.05069,-2.637568 -1.758671,-4.667415 -4.000023,-5.829519 l -0.1171,-0.06392 c 0.06152,0.149261 0.08165,0.276228 0.07932,0.389877 0.02005,-0.08381 0.03369,-0.169953 0.03754,-0.258822 a 1.2614764,1.2614764 0 0 1 -0.04107,0.312803 l 0.0035,-0.05398 a 1.3140112,1.3140112 0 0 1 -0.165912,0.395494 l 0.03288,-0.03537 C 15.51805,8.665831 14.307504,8.826884 13.70949,8.058916 12.748142,6.823583 13.72962,5.491689 13.866933,4.183531 14.038814,2.544045 13.010657,0.952443 11.735866,-10e-7 c 0.702121,1.135794 -0.222892,2.63845 -0.962951,3.478524 -0.717601,0.81433 -1.5903195,1.494232 -2.3825125,2.234132 -0.850983,0.794678 -1.669081,1.631786 -2.368556,2.564501 -1.398949,1.866868 -2.255386,4.214812 -1.626012,6.543826 0.628974,2.327412 2.645026,3.808973 4.921667,4.332876 z"
       id="path2"
       inkscape:connector-curvature="0"
       style="fill:#ee4323;stroke-width:0.0802057" />
  </g>
</svg>
