<?xml version="1.0" encoding="UTF-8" standalone="no"?>
<svg
   xmlns:dc="http://purl.org/dc/elements/1.1/"
   xmlns:cc="http://creativecommons.org/ns#"
   xmlns:rdf="http://www.w3.org/1999/02/22-rdf-syntax-ns#"
   xmlns:svg="http://www.w3.org/2000/svg"
   xmlns="http://www.w3.org/2000/svg"
   xmlns:sodipodi="http://sodipodi.sourceforge.net/DTD/sodipodi-0.dtd"
   xmlns:inkscape="http://www.inkscape.org/namespaces/inkscape"
   viewBox="0 0 200 200"
   version="1.1"
   id="svg4"
   sodipodi:docname="css3.svg"
   inkscape:version="1.0.2 (1.0.2+r75+1)"
   width="200"
   height="200">
  <metadata
     id="metadata10">
    <rdf:RDF>
      <cc:Work
         rdf:about="">
        <dc:format>image/svg+xml</dc:format>
        <dc:type
           rdf:resource="http://purl.org/dc/dcmitype/StillImage" />
        <dc:title></dc:title>
      </cc:Work>
    </rdf:RDF>
  </metadata>
  <defs
     id="defs8" />
  <sodipodi:namedview
     pagecolor="#ffffff"
     bordercolor="#666666"
     borderopacity="1"
     objecttolerance="10"
     gridtolerance="10"
     guidetolerance="10"
     inkscape:pageopacity="0"
     inkscape:pageshadow="2"
     inkscape:window-width="1366"
     inkscape:window-height="700"
     id="namedview6"
     showgrid="false"
     inkscape:zoom="1.3240943"
     inkscape:cx="-31.867158"
     inkscape:cy="15.282113"
     inkscape:window-x="0"
     inkscape:window-y="32"
     inkscape:window-maximized="1"
     inkscape:current-layer="layer1"
     inkscape:document-rotation="0" />
  <g
     inkscape:groupmode="layer"
     id="layer1"
     inkscape:label="Layer 1">
    <g
       id="g12"
       transform="matrix(0.34272011,0,0,0.34272011,34.197739,35.494346)">
      <path
         d="M 0,32 34.9,427.8 192,480 349.1,427.8 384,32 Z"
         id="path30"
         style="fill:#ff6600" />
      <path
         d="m 313.1,112 -4.8,47.3 -115.3,49.3 -0.3,0.1 H 304.2 L 291.4,355.3 193.2,384 94.4,354.8 88,280.9 h 48.9 l 3.2,38.3 52.6,13.3 54.7,-15.4 3.7,-61.6 L 84.8,255 v -0.1 L 84.6,255 81,208.7 193.1,162 l 6.5,-2.7 H 76.7 L 70.9,112 Z"
         id="path2"
         style="fill:#ffffff" />
    </g>
    <path
       id="path18"
       style="font-weight:bold;font-size:16px;line-height:1.25;font-family:'Roboto Condensed';-inkscape-font-specification:'Roboto Condensed, ';letter-spacing:0px;stroke-width:3.16273"
       d="m 60.478083,1.1e-6 c -3.920481,0 -7.017332,1.326046 -9.290553,3.978135 -2.256746,2.635619 -3.38512,6.4654999 -3.38512,11.4896469 v 6.449026 c 0.04942,4.875894 1.169553,8.606938 3.360413,11.193141 2.190855,2.586199 5.262997,3.879298 9.216424,3.879298 3.854587,0 6.852608,-1.062482 8.994045,-3.187449 2.141428,-2.124967 3.294519,-5.230054 3.459244,-9.315263 h -7.264417 c -0.08239,2.602674 -0.518885,4.332298 -1.30957,5.188872 -0.790684,0.856579 -2.083786,1.284864 -3.879302,1.284864 -2.059074,0 -3.459245,-0.716557 -4.200516,-2.149674 -0.741264,-1.433117 -1.1119,-3.846355 -1.1119,-7.239713 v -6.547862 c 0.03295,-3.327467 0.477704,-5.6583409 1.334282,-6.9926249 0.856575,-1.334279 2.215566,-2.001421 4.07697,-2.001421 1.894351,0 3.203921,0.477707 3.928716,1.433117 0.724802,0.938939 1.128383,2.6932699 1.210742,5.2629979 h 7.264418 C 72.618397,8.6398871 71.465316,5.5018531 69.422715,3.3109961 67.380104,1.1036651 64.398569,1.1e-6 60.478083,1.1e-6 Z m 80.674617,0 c -2.80036,0 -5.18889,0.897757 -7.1656,2.693271 -1.96022,1.779042 -2.94034,4.151098 -2.94034,7.116168 h 6.9926 c 0,-1.235442 0.32946,-2.207329 0.98836,-2.915653 0.6754,-0.724792 1.4496,-1.087191 2.32264,-1.087191 1.15308,0 2.00964,0.436524 2.56974,1.309573 0.56006,0.856575 0.84009,1.943768 0.84009,3.2615779 0,1.482534 -0.30474,2.676798 -0.91423,3.582791 -0.59302,0.889521 -1.53197,1.334281 -2.8168,1.334281 h -3.38514 v 5.658344 h 3.43455 c 2.75091,0.01647 4.1264,1.795513 4.1264,5.337125 0,1.466061 -0.35418,2.652088 -1.0625,3.558085 -0.69185,0.889521 -1.63899,1.334281 -2.84154,1.334281 -1.03776,0 -1.89432,-0.428289 -2.56972,-1.284863 -0.67537,-0.87305 -1.01306,-1.968479 -1.01306,-3.286287 h -6.99263 c 0,3.558083 1.07897,6.177228 3.23688,7.857435 2.1579,1.680206 4.54643,2.520309 7.1656,2.520309 3.12978,0 5.75717,-0.922464 7.88211,-2.767398 2.12499,-1.844932 3.18748,-4.455842 3.18748,-7.832726 0,-1.960242 -0.42004,-3.665155 -1.26017,-5.114747 -0.84012,-1.46606 -2.10028,-2.553252 -3.78044,-3.261578 1.46605,-0.807155 2.59442,-1.91082 3.3851,-3.310993 0.80717,-1.400172 1.21073,-2.882707 1.21073,-4.447606 0,-3.3604129 -0.9801,-5.9054299 -2.94036,-7.6350539 C 146.85224,0.8730511 144.29896,1.1e-6 141.1527,1.1e-6 Z m -52.605291,0.0247 c -3.343932,0 -6.078392,0.922467 -8.203361,2.767399 -2.12496,1.828463 -3.187445,4.258173 -3.187445,7.2891319 0,3.096852 1.013063,5.493616 3.039197,7.190293 1.91082,1.597846 4.142864,2.915655 6.69612,3.953427 2.553248,1.037777 4.126387,1.960242 4.7194,2.767399 0.609482,0.790684 0.914227,1.803752 0.914227,3.039197 0,1.153083 -0.288268,2.116732 -0.864813,2.890943 -0.576537,0.757742 -1.564892,1.13661 -2.965067,1.13661 -1.71315,0 -3.006251,-0.444762 -3.879303,-1.334282 -0.856574,-0.889521 -1.284862,-2.421474 -1.284862,-4.595858 h -7.289134 c 0,2.734455 0.60949,4.974729 1.828462,6.720825 1.218972,1.746099 2.775635,3.039199 4.669987,3.879302 1.910821,0.840103 3.895771,1.260152 5.95485,1.260152 3.426299,0 6.136043,-0.873046 8.129231,-2.619144 1.993188,-1.762568 2.989783,-4.225224 2.989783,-7.387965 0,-2.96507 -0.831868,-5.353597 -2.495605,-7.165586 -1.663737,-1.811989 -4.17581,-3.31923 -7.536218,-4.521733 -1.614314,-0.708321 -2.915654,-1.457824 -3.904009,-2.248509 -0.971879,-0.790686 -1.457827,-1.770807 -1.457827,-2.940364 0,-1.1530809 0.321223,-2.1332019 0.963649,-2.9403589 0.658903,-0.80716 1.671965,-1.210738 3.039195,-1.210738 1.482534,0 2.545019,0.485942 3.187454,1.457827 0.658904,0.971882 0.988356,2.207327 0.988356,3.7063369 h 7.264418 c 0,-3.2451049 -1.02954,-5.9054319 -3.088609,-7.9809809 -2.042611,-2.075549 -4.7853,-3.113324 -8.228076,-3.113324 z m 27.328061,0 c -3.34394,0 -6.07841,0.922467 -8.20335,2.767399 -2.12495,1.828463 -3.18745,4.258173 -3.18745,7.2891319 0,3.096852 1.01306,5.493616 3.03921,7.190293 1.9108,1.597846 4.14287,2.915655 6.69608,3.953427 2.55329,1.037777 4.1264,1.960242 4.71942,2.767399 0.60949,0.790684 0.91422,1.803752 0.91422,3.039197 0,1.153083 -0.28828,2.116732 -0.86479,2.890943 -0.57657,0.757742 -1.56492,1.13661 -2.96507,1.13661 -1.71316,0 -3.00625,-0.444762 -3.87932,-1.334282 -0.85657,-0.889521 -1.28486,-2.421474 -1.28486,-4.595858 h -7.28912 c 0,2.734455 0.6095,4.974729 1.82845,6.720825 1.21899,1.746099 2.77566,3.039199 4.66997,3.879302 1.91084,0.840103 3.89578,1.260152 5.95488,1.260152 3.42629,0 6.13603,-0.873046 8.12922,-2.619144 1.9932,-1.762568 2.98978,-4.225224 2.98978,-7.387965 0,-2.96507 -0.83187,-5.353597 -2.4956,-7.165586 -1.66373,-1.811989 -4.1758,-3.31923 -7.53621,-4.521733 -1.61432,-0.708321 -2.91566,-1.457824 -3.90402,-2.248509 -0.97189,-0.790686 -1.45784,-1.770807 -1.45784,-2.940364 0,-1.1530809 0.32121,-2.1332019 0.96366,-2.9403589 0.65889,-0.80716 1.67198,-1.210738 3.0392,-1.210738 1.48253,0 2.545,0.485942 3.18745,1.457827 0.65889,0.971882 0.98835,2.207327 0.98835,3.7063369 h 7.26444 c 0,-3.2451049 -1.02953,-5.9054319 -3.08864,-7.9809809 -2.04259,-2.075549 -4.78529,-3.113324 -8.22806,-3.113324 z" />
  </g>
</svg>
