<?xml version="1.0" encoding="UTF-8" standalone="no"?>
<svg
   xmlns:dc="http://purl.org/dc/elements/1.1/"
   xmlns:cc="http://creativecommons.org/ns#"
   xmlns:rdf="http://www.w3.org/1999/02/22-rdf-syntax-ns#"
   xmlns:svg="http://www.w3.org/2000/svg"
   xmlns="http://www.w3.org/2000/svg"
   xmlns:sodipodi="http://sodipodi.sourceforge.net/DTD/sodipodi-0.dtd"
   xmlns:inkscape="http://www.inkscape.org/namespaces/inkscape"
   width="200"
   height="200"
   viewBox="0 0 200 200"
   id="svg2"
   version="1.1"
   inkscape:version="1.0.2 (1.0.2+r75+1)"
   sodipodi:docname="SEVENart 047 (gimp).svg"
   inkscape:export-filename="SEVENart 047 (gimp).png"
   inkscape:export-xdpi="96"
   inkscape:export-ydpi="96">
  <defs
     id="defs4" />
  <sodipodi:namedview
     id="base"
     pagecolor="#ffffff"
     bordercolor="#666666"
     borderopacity="1.0"
     inkscape:pageopacity="0.0"
     inkscape:pageshadow="2"
     inkscape:zoom="0.35"
     inkscape:cx="843.6923"
     inkscape:cy="413.91332"
     inkscape:document-units="px"
     inkscape:current-layer="layer1"
     showgrid="false"
     inkscape:window-width="1366"
     inkscape:window-height="700"
     inkscape:window-x="0"
     inkscape:window-y="32"
     inkscape:window-maximized="1"
     units="px"
     inkscape:document-rotation="0" />
  <metadata
     id="metadata7">
    <rdf:RDF>
      <cc:Work
         rdf:about="">
        <dc:format>image/svg+xml</dc:format>
        <dc:type
           rdf:resource="http://purl.org/dc/dcmitype/StillImage" />
        <dc:title></dc:title>
      </cc:Work>
    </rdf:RDF>
  </metadata>
  <g
     inkscape:label="gimp"
     inkscape:groupmode="layer"
     id="layer1"
     transform="translate(0,-52.3622)">
    <g
       id="g1161"
       transform="matrix(0.22222222,0,0,0.22222222,-11.11111,29.615046)">
      <g
         transform="matrix(0.44998697,0,0,0.44998697,48.147276,514.01549)"
         id="g4372">
        <path
           style="fill:#2d3335;fill-opacity:1;fill-rule:evenodd;stroke:#2d3335;stroke-width:1px;stroke-linecap:butt;stroke-linejoin:miter;stroke-opacity:1"
           d="m 1618.5451,-764.81099 c -10.495,-0.43134 -19.9988,6.07764 -24.5179,16.64452 -232.1931,492.97933 -1032.3575,564.81395 -1189.12979,96.17448 -7.55359,485.91806 -48.82508,759.53834 -90.50876,862.9065 834.40805,627.42061 1499.28205,158.15953 1344.04865,-920.36097 -7.0973,-39.28264 -24.5536,-54.73489 -39.8922,-55.36453 z m -11.3197,98.04795 c 111.0377,875.30212 -326.5439,1456.05643 -1237.38059,875.24635 38.29621,-84.44631 76.21203,-307.981439 83.15176,-704.9511 195.01068,312.87222 858.70703,268.36096 1154.22883,-170.29525 z"
           id="path4170"
           inkscape:connector-curvature="0" />
        <path
           style="fill:#58544a;fill-opacity:1;fill-rule:evenodd;stroke:#000000;stroke-width:1px;stroke-linecap:butt;stroke-linejoin:miter;stroke-opacity:0"
           d="m 1607.2254,-666.76304 c -295.5218,438.65621 -959.21815,483.16747 -1154.22883,170.29525 -6.93973,396.969661 -44.85555,620.50479 -83.15176,704.9511 910.83669,580.81008 1348.41829,0.0602 1237.38059,-875.24635 z m -40.3904,131.19628 C 1624.2695,221.3535 1220.46,681.29666 415.39964,197.54578 c 35.51365,-73.78945 58.7975,-280.995419 65.23301,-627.86859 180.84145,273.38866 822.05195,226.56968 1086.20235,-105.24395 z"
           id="path4147"
           inkscape:connector-curvature="0" />
        <path
           sodipodi:nodetypes="cccc"
           inkscape:connector-curvature="0"
           id="path4168"
           d="m 480.63339,-430.32231 c -6.43549,346.873172 -29.7176,554.08125 -65.23125,627.8707 805.06046,483.75087 1208.86536,23.80762 1151.43086,-733.11264 -264.1504,331.81363 -905.35815,378.6306 -1086.19961,105.24194 z"
           style="fill:#68614d;fill-opacity:1;fill-rule:evenodd;stroke:#68614d;stroke-width:1px;stroke-linecap:butt;stroke-linejoin:miter;stroke-opacity:1" />
        <g
           id="g4222"
           transform="matrix(2.3701592,0,0,2.3707166,-243.17709,-1156.8107)"
           style="stroke:none">
          <path
             style="color:#000000;clip-rule:nonzero;display:inline;overflow:visible;visibility:visible;opacity:1;isolation:auto;mix-blend-mode:normal;color-interpolation:sRGB;color-interpolation-filters:linearRGB;solid-color:#000000;solid-opacity:1;fill:#8b8d88;fill-opacity:1;fill-rule:evenodd;stroke:none;stroke-width:1.16941;stroke-linecap:round;stroke-linejoin:miter;stroke-miterlimit:4;stroke-dasharray:none;stroke-dashoffset:0;stroke-opacity:1;color-rendering:auto;image-rendering:auto;shape-rendering:auto;text-rendering:auto;enable-background:accumulate"
             d="m 342.46289,325.73633 a 81.317284,83.995857 0 0 0 -81.31836,83.99609 81.317284,83.995857 0 0 0 81.31836,83.9961 81.317284,83.995857 0 0 0 81.31641,-83.9961 81.317284,83.995857 0 0 0 -81.31641,-83.99609 z m 0,16.07031 a 65.755333,67.924431 0 0 1 65.75391,67.92578 65.755333,67.924431 0 0 1 -65.75391,67.92383 65.755333,67.924431 0 0 1 -65.75586,-67.92383 65.755333,67.924431 0 0 1 65.75586,-67.92578 z"
             id="path4224"
             inkscape:connector-curvature="0" />
        </g>
        <ellipse
           transform="matrix(1,0,0.27958022,0.96012234,0,0)"
           ry="220.71072"
           rx="183.3441"
           cy="-13.77725"
           cx="245.52296"
           id="ellipse4236"
           style="color:#000000;clip-rule:nonzero;display:inline;overflow:visible;visibility:visible;opacity:1;isolation:auto;mix-blend-mode:normal;color-interpolation:sRGB;color-interpolation-filters:linearRGB;solid-color:#000000;solid-opacity:1;fill:none;fill-opacity:1;fill-rule:evenodd;stroke:none;stroke-width:1.02056;stroke-linecap:round;stroke-linejoin:miter;stroke-miterlimit:4;stroke-dasharray:none;stroke-dashoffset:0;stroke-opacity:1;color-rendering:auto;image-rendering:auto;shape-rendering:auto;text-rendering:auto;enable-background:accumulate" />
        <ellipse
           style="color:#000000;clip-rule:nonzero;display:inline;overflow:visible;visibility:visible;opacity:1;isolation:auto;mix-blend-mode:normal;color-interpolation:sRGB;color-interpolation-filters:linearRGB;solid-color:#000000;solid-opacity:1;fill:none;fill-opacity:1;fill-rule:evenodd;stroke:none;stroke-width:1.02055;stroke-linecap:round;stroke-linejoin:miter;stroke-miterlimit:4;stroke-dasharray:none;stroke-dashoffset:0;stroke-opacity:1;color-rendering:auto;image-rendering:auto;shape-rendering:auto;text-rendering:auto;enable-background:accumulate"
           id="ellipse4238"
           cx="236.04941"
           cy="-19.551521"
           rx="130.82764"
           ry="157.52808"
           transform="matrix(1,0,0.27951459,0.96014145,0,0)" />
        <path
           style="fill:#000000;fill-opacity:1;fill-rule:evenodd;stroke:none;stroke-width:1px;stroke-linecap:butt;stroke-linejoin:miter;stroke-opacity:1"
           d="m 1189.486,126.30659 c -18.7229,-28.986084 -46.7414,-43.735769 -63.3538,-54.455627 28.1855,-5.819044 188.0744,30.215077 160.3642,126.733117 -133.6318,60.56607 -351.76046,108.92821 -533.55719,11.88114 133.18814,7.96917 276.17909,38.05465 436.54679,-84.15863 z"
           id="path4269"
           inkscape:connector-curvature="0"
           sodipodi:nodetypes="ccccc" />
        <path
           style="fill:#363636;fill-opacity:1;fill-rule:evenodd;stroke:none;stroke-width:1px;stroke-linecap:butt;stroke-linejoin:miter;stroke-opacity:1"
           d="m 2004.1752,735.21934 c -45.7901,-216.0332 -83.0727,-292.2723 -166.7621,-310.04691 -83.6893,-17.77462 -147.277,63.43562 -114.0967,138.17821 33.1802,74.74259 191.6995,90.61894 280.8588,171.8687 z"
           id="path4273"
           inkscape:connector-curvature="0"
           sodipodi:nodetypes="czzc" />
        <path
           style="fill:#663806;fill-opacity:1;fill-rule:evenodd;stroke:none;stroke-width:1px;stroke-linecap:butt;stroke-linejoin:miter;stroke-opacity:1"
           d="m 1216.1143,170.86259 c -84.3947,12.37587 -81.2293,55.33023 -80.6615,75.82633 42.4332,39.97428 304.1702,189.16625 387.6572,214.89549 0.1133,-0.76034 0.04,-1.29499 0.1734,-2.07921 0.9342,-5.46756 2.3667,-11.50147 4.2118,-17.89528 1.845,-6.39392 4.1008,-13.14795 6.6802,-20.05034 2.5795,-6.90238 5.4808,-13.95062 8.6184,-20.94378 3.1376,-6.99317 6.5117,-13.93096 10.0312,-20.59722 3.5195,-6.66626 7.1884,-13.06218 10.9137,-18.98364 3.7253,-5.92146 7.5053,-11.36575 11.2602,-16.12472 3.3395,-4.23266 6.6322,-7.68219 9.8634,-10.68305 -4.4509,-2.97377 -175.5996,-116.84332 -368.7478,-163.36458 z"
           id="path4275"
           inkscape:connector-curvature="0" />
        <path
           style="fill:#878984;fill-opacity:1;fill-rule:evenodd;stroke:#000000;stroke-width:1px;stroke-linecap:butt;stroke-linejoin:miter;stroke-opacity:0"
           d="m 1601.238,325.33626 c -41.2797,0.33904 -128.0417,220.81283 -43.5085,147.50507 l 157.2088,57.50874 c -0.2596,-3.01891 -0.6014,-6.04945 -0.5844,-9.03165 0.02,-4.59126 0.3729,-9.12905 1.0232,-13.59061 0.6506,-4.46166 1.6038,-8.84467 2.842,-13.12507 1.2384,-4.2804 2.7645,-8.45999 4.5528,-12.50777 1.7884,-4.04779 3.8379,-7.96447 6.139,-11.72807 2.3011,-3.76361 4.8513,-7.36883 7.6277,-10.7968 2.7762,-3.42787 5.7832,-6.67839 8.9973,-9.71927 3.2141,-3.04078 6.6333,-5.87702 10.2477,-8.47925 1.2853,-0.92585 2.722,-1.65229 4.0548,-2.51776 l -141.7265,-87.79263 c -3.1483,-18.29943 -9.2295,-25.78772 -16.8739,-25.72493 z"
           id="path4277"
           inkscape:connector-curvature="0" />
        <path
           style="fill:#dc7910;fill-opacity:1;fill-rule:evenodd;stroke:none;stroke-width:1px;stroke-linecap:butt;stroke-linejoin:miter;stroke-opacity:1"
           d="m 1173.7914,203.53445 c -13.4685,0.15447 -19.2141,6.94953 4.2821,26.47745 32.6916,27.17058 263.611,161.05896 355.9718,191.92124 0.05,-0.12639 0.08,-0.24777 0.1303,-0.37315 2.5795,-6.90239 5.4808,-13.95062 8.6184,-20.94379 3.1376,-6.99317 6.5117,-13.93096 10.0312,-20.59722 1.7908,-3.39186 3.6227,-6.71079 5.4785,-9.93584 -32.1094,-23.2856 -150.4726,-101.82962 -363.3829,-163.21832 -7.2901,-2.10189 -15.0071,-3.40019 -21.129,-3.32997 z"
           id="path4279"
           inkscape:connector-curvature="0" />
        <path
           style="fill:#fefefe;fill-opacity:1;fill-rule:evenodd;stroke:none;stroke-width:1px;stroke-linecap:butt;stroke-linejoin:miter;stroke-opacity:1"
           d="m 1624.9005,371.31725 c -32.5248,0.26582 -81.9054,49.05618 -26.6074,69.94068 64.0877,24.20424 104.5768,40.09063 122.01,46.96102 0.7558,-2.07099 1.5805,-4.11419 2.4685,-6.12399 1.7885,-4.04768 3.8379,-7.96446 6.1391,-11.72806 2.301,-3.76351 4.8512,-7.36873 7.6276,-10.7967 1.1862,-1.46462 2.4343,-2.88018 3.7029,-4.27759 l -92.8475,-47.0855 c 3.594,-27.10579 -7.7091,-37.01093 -22.4932,-36.88986 z"
           id="path4281"
           inkscape:connector-curvature="0" />
        <path
           style="color:#000000;clip-rule:nonzero;display:inline;overflow:visible;visibility:visible;opacity:1;isolation:auto;mix-blend-mode:normal;color-interpolation:sRGB;color-interpolation-filters:linearRGB;solid-color:#000000;solid-opacity:1;fill:#a4a4a4;fill-opacity:1;fill-rule:evenodd;stroke:none;stroke-width:1;stroke-linecap:round;stroke-linejoin:miter;stroke-miterlimit:4;stroke-dasharray:none;stroke-dashoffset:0;stroke-opacity:1;color-rendering:auto;image-rendering:auto;shape-rendering:auto;text-rendering:auto;enable-background:accumulate"
           d="m 1860.0455,487.1988 a 43.060734,43.06944 0 0 1 -43.0607,43.06942 43.060734,43.06944 0 0 1 -43.0608,-43.06942 43.060734,43.06944 0 0 1 43.0608,-43.06941 43.060734,43.06944 0 0 1 43.0607,43.06941 z"
           id="path4285"
           inkscape:connector-curvature="0" />
        <path
           style="fill:#6d6d6d;fill-opacity:1;fill-rule:evenodd;stroke:none;stroke-width:1px;stroke-linecap:butt;stroke-linejoin:miter;stroke-opacity:1"
           d="m 1927.9528,583.73369 c -1.7323,-39.60403 -24.3828,-87.55921 -41.3285,-67.82194 -16.9455,19.73726 26.2325,29.20797 41.3285,67.82194 z"
           id="path4287"
           inkscape:connector-curvature="0"
           sodipodi:nodetypes="czc" />
        <g
           id="g4215"
           style="stroke:none"
           transform="matrix(2.7717255,0,0,2.7722859,-8.2954021,-1303.0188)">
          <path
             style="color:#000000;clip-rule:nonzero;display:inline;overflow:visible;visibility:visible;opacity:1;isolation:auto;mix-blend-mode:normal;color-interpolation:sRGB;color-interpolation-filters:linearRGB;solid-color:#000000;solid-opacity:1;fill:#d0d0ca;fill-opacity:1;fill-rule:evenodd;stroke:none;stroke-width:1;stroke-linecap:round;stroke-linejoin:miter;stroke-miterlimit:4;stroke-dasharray:none;stroke-dashoffset:0;stroke-opacity:1;color-rendering:auto;image-rendering:auto;shape-rendering:auto;text-rendering:auto;enable-background:accumulate"
             d="m 342.46289,341.80664 a 65.755333,67.924431 0 0 0 -65.75586,67.92578 65.755333,67.924431 0 0 0 65.75586,67.92383 65.755333,67.924431 0 0 0 65.75391,-67.92383 65.755333,67.924431 0 0 0 -65.75391,-67.92578 z m -134.35937,3.22852 a 56.22873,58.085488 0 0 0 -56.22852,58.08593 56.22873,58.085488 0 0 0 56.22852,58.08594 56.22873,58.085488 0 0 0 56.22851,-58.08594 56.22873,58.085488 0 0 0 -56.22851,-58.08593 z"
             id="ellipse4198"
             inkscape:connector-curvature="0" />
          <path
             style="color:#000000;clip-rule:nonzero;display:inline;overflow:visible;visibility:visible;opacity:1;isolation:auto;mix-blend-mode:normal;color-interpolation:sRGB;color-interpolation-filters:linearRGB;solid-color:#000000;solid-opacity:1;fill:#000000;fill-opacity:1;fill-rule:evenodd;stroke:#000000;stroke-width:0.36075;stroke-linecap:round;stroke-linejoin:miter;stroke-miterlimit:4;stroke-dasharray:none;stroke-dashoffset:0;stroke-opacity:1;color-rendering:auto;image-rendering:auto;shape-rendering:auto;text-rendering:auto;enable-background:accumulate"
             d="m 222.28711,374.41016 a 36.891272,38.11429 0 0 0 -36.89063,38.11523 36.891272,38.11429 0 0 0 36.89063,38.11328 36.891272,38.11429 0 0 0 36.89062,-38.11328 36.891272,38.11429 0 0 0 -36.89062,-38.11523 z m 136.75977,1.74804 a 43.141609,44.570366 0 0 0 -43.14063,44.57032 43.141609,44.570366 0 0 0 43.14063,44.57031 43.141609,44.570366 0 0 0 43.14257,-44.57031 43.141609,44.570366 0 0 0 -43.14257,-44.57032 z m -136.75977,11.9961 a 23.583927,24.370829 0 0 1 23.58398,24.37109 23.583927,24.370829 0 0 1 -23.58398,24.37109 23.583927,24.370829 0 0 1 -23.58594,-24.37109 23.583927,24.370829 0 0 1 23.58594,-24.37109 z m 136.75977,4.07617 a 27.579655,28.498938 0 0 1 27.58007,28.49805 27.579655,28.498938 0 0 1 -27.58007,28.5 27.579655,28.498938 0 0 1 -27.58008,-28.5 27.579655,28.498938 0 0 1 27.58008,-28.49805 z"
             id="ellipse4200"
             inkscape:connector-curvature="0" />
          <path
             style="color:#000000;clip-rule:nonzero;display:inline;overflow:visible;visibility:visible;opacity:1;isolation:auto;mix-blend-mode:normal;color-interpolation:sRGB;color-interpolation-filters:linearRGB;solid-color:#000000;solid-opacity:1;fill:#2d3335;fill-opacity:1;fill-rule:evenodd;stroke:#2d3335;stroke-width:0.36075;stroke-linecap:round;stroke-linejoin:miter;stroke-miterlimit:4;stroke-dasharray:none;stroke-dashoffset:0;stroke-opacity:1;color-rendering:auto;image-rendering:auto;shape-rendering:auto;text-rendering:auto;enable-background:accumulate"
             d="m 222.28711,388.1543 a 23.583927,24.370829 0 0 0 -23.58399,24.37109 23.583927,24.370829 0 0 0 23.58399,24.37109 23.583927,24.370829 0 0 0 23.58398,-24.37109 23.583927,24.370829 0 0 0 -23.58398,-24.37109 z m 136.75977,4.07617 a 27.579655,28.498938 0 0 0 -27.58008,28.49805 27.579655,28.498938 0 0 0 27.58008,28.5 27.579655,28.498938 0 0 0 27.58007,-28.5 27.579655,28.498938 0 0 0 -27.58007,-28.49805 z"
             id="ellipse4202"
             inkscape:connector-curvature="0" />
          <path
             id="path4196"
             d="m 342.46289,325.73633 a 81.317284,83.995857 0 0 0 -81.31836,83.99609 81.317284,83.995857 0 0 0 81.31836,83.9961 81.317284,83.995857 0 0 0 81.31641,-83.9961 81.317284,83.995857 0 0 0 -81.31641,-83.99609 z m 0,16.07031 a 65.755333,67.924431 0 0 1 65.75391,67.92578 65.755333,67.924431 0 0 1 -65.75391,67.92383 65.755333,67.924431 0 0 1 -65.75586,-67.92383 65.755333,67.924431 0 0 1 65.75586,-67.92578 z"
             style="color:#000000;clip-rule:nonzero;display:inline;overflow:visible;visibility:visible;opacity:1;isolation:auto;mix-blend-mode:normal;color-interpolation:sRGB;color-interpolation-filters:linearRGB;solid-color:#000000;solid-opacity:1;fill:#8b8d88;fill-opacity:1;fill-rule:evenodd;stroke:none;stroke-width:1;stroke-linecap:round;stroke-linejoin:miter;stroke-miterlimit:4;stroke-dasharray:none;stroke-dashoffset:0;stroke-opacity:1;color-rendering:auto;image-rendering:auto;shape-rendering:auto;text-rendering:auto;enable-background:accumulate"
             inkscape:connector-curvature="0" />
          <path
             style="color:#000000;clip-rule:nonzero;display:inline;overflow:visible;visibility:visible;opacity:1;isolation:auto;mix-blend-mode:normal;color-interpolation:sRGB;color-interpolation-filters:linearRGB;solid-color:#000000;solid-opacity:1;fill:#ffffff;fill-opacity:1;fill-rule:evenodd;stroke:none;stroke-width:1;stroke-linecap:round;stroke-linejoin:miter;stroke-miterlimit:4;stroke-dasharray:none;stroke-dashoffset:0;stroke-opacity:1;color-rendering:auto;image-rendering:auto;shape-rendering:auto;text-rendering:auto;enable-background:accumulate"
             d="m 211.08008,379.05273 c -10.97873,7.3e-4 -19.8785,9.19867 -19.87891,20.54493 -6.2e-4,11.34702 8.89944,20.54614 19.87891,20.54687 10.98023,3.9e-4 19.88148,-9.19906 19.88086,-20.54687 -4.1e-4,-11.34705 -8.90137,-20.54532 -19.88086,-20.54493 z m 134.86328,2.53321 c -12.84015,2e-4 -23.24883,10.75778 -23.24805,24.02734 2.6e-4,13.2688 10.40864,24.02519 23.24805,24.02539 8.89763,-1.4e-4 16.62729,-5.16621 20.53516,-12.7539 1.73124,-3.36146 2.71281,-7.19788 2.71289,-11.27149 7.8e-4,-13.26956 -10.4079,-24.02714 -23.24805,-24.02734 z"
             id="ellipse4204"
             inkscape:connector-curvature="0" />
        </g>
        <path
           style="color:#000000;clip-rule:nonzero;display:inline;overflow:visible;visibility:visible;opacity:1;isolation:auto;mix-blend-mode:normal;color-interpolation:sRGB;color-interpolation-filters:linearRGB;solid-color:#000000;solid-opacity:1;fill:#1a1a1a;fill-opacity:1;fill-rule:evenodd;stroke:#000000;stroke-width:1;stroke-linecap:round;stroke-linejoin:miter;stroke-miterlimit:4;stroke-dasharray:none;stroke-dashoffset:0;stroke-opacity:1;color-rendering:auto;image-rendering:auto;shape-rendering:auto;text-rendering:auto;enable-background:accumulate"
           d="M 166.07428,-272.80065 A 286.66832,203.37961 52.973792 0 0 17.061555,-13.229096 286.66832,203.37961 52.973792 0 0 317.26324,246.34778 286.66832,203.37961 52.973792 0 0 466.28137,-13.229096 286.66832,203.37961 52.973792 0 0 166.07428,-272.80065 Z m 13.89111,47.66488 A 234.01927,166.02189 52.983566 0 1 425.01407,-13.229096 234.01927,166.02189 52.983566 0 1 303.37756,198.68289 234.01927,166.02189 52.983566 0 1 58.32886,-13.229096 234.01927,166.02189 52.983566 0 1 179.96539,-225.13577 Z"
           id="path4234"
           inkscape:connector-curvature="0" />
        <path
           style="color:#000000;clip-rule:nonzero;display:inline;overflow:visible;visibility:visible;opacity:1;isolation:auto;mix-blend-mode:normal;color-interpolation:sRGB;color-interpolation-filters:linearRGB;solid-color:#000000;solid-opacity:1;fill:#6e7375;fill-opacity:1;fill-rule:evenodd;stroke:none;stroke-width:1;stroke-linecap:round;stroke-linejoin:miter;stroke-miterlimit:4;stroke-dasharray:none;stroke-dashoffset:0;stroke-opacity:1;color-rendering:auto;image-rendering:auto;shape-rendering:auto;text-rendering:auto;enable-background:accumulate"
           d="M 179.96539,-225.13568 A 234.01928,166.02189 52.983566 0 0 58.328862,-13.229104 234.01928,166.02189 52.983566 0 0 303.37756,198.68288 234.01928,166.02189 52.983566 0 0 425.01406,-13.229104 234.01928,166.02189 52.983566 0 0 179.96539,-225.13568 Z m 6.58826,55.11547 A 167.01471,118.47806 53.004796 0 1 361.41056,-18.773702 167.01471,118.47806 53.004796 0 1 274.61548,132.47832 167.01471,118.47806 53.004796 0 1 99.758588,-18.773702 167.01471,118.47806 53.004796 0 1 186.55365,-170.02021 Z"
           id="path4252"
           inkscape:connector-curvature="0" />
        <path
           style="color:#000000;clip-rule:nonzero;display:inline;overflow:visible;visibility:visible;opacity:1;isolation:auto;mix-blend-mode:normal;color-interpolation:sRGB;color-interpolation-filters:linearRGB;solid-color:#000000;solid-opacity:1;fill:#303739;fill-opacity:1;fill-rule:evenodd;stroke:#303739;stroke-width:1;stroke-linecap:round;stroke-linejoin:miter;stroke-miterlimit:4;stroke-dasharray:none;stroke-dashoffset:0;stroke-opacity:1;color-rendering:auto;image-rendering:auto;shape-rendering:auto;text-rendering:auto;enable-background:accumulate"
           d="M 186.55365,-170.0203 A 167.01471,118.47806 53.004796 0 1 361.41056,-18.773694 167.01471,118.47806 53.004796 0 1 274.61548,132.47833 167.01471,118.47806 53.004796 0 1 99.758586,-18.773694 167.01471,118.47806 53.004796 0 1 186.55365,-170.0203 Z"
           id="ellipse4240"
           inkscape:connector-curvature="0" />
        <path
           style="color:#000000;clip-rule:nonzero;display:inline;overflow:visible;visibility:visible;opacity:1;isolation:auto;mix-blend-mode:normal;color-interpolation:sRGB;color-interpolation-filters:linearRGB;solid-color:#000000;solid-opacity:1;fill:#ffffff;fill-opacity:1;fill-rule:evenodd;stroke:none;stroke-width:1;stroke-linecap:round;stroke-linejoin:miter;stroke-miterlimit:4;stroke-dasharray:none;stroke-dashoffset:0;stroke-opacity:1;color-rendering:auto;image-rendering:auto;shape-rendering:auto;text-rendering:auto;enable-background:accumulate"
           d="m 223.14368,-104.88234 a 73.252746,93.564647 0 0 1 -73.25275,93.564731 73.252746,93.564647 0 0 1 -73.252736,-93.564731 73.252746,93.564647 0 0 1 73.252736,-93.56463 73.252746,93.564647 0 0 1 73.25275,93.56463 z"
           id="path4245"
           inkscape:connector-curvature="0" />
      </g>
      <path
         inkscape:connector-curvature="0"
         id="path1120"
         d="m 355.45508,815.07842 c -16.44268,0 -29.79696,5.54896 -40.06055,16.65039 C 305.13094,842.83024 300,857.28401 300,875.08819 c 0,17.38526 5.0279,31.73403 15.08203,43.04492 10.15885,11.31089 22.98818,16.96484 38.48828,16.96484 7.75006,0 14.34698,-1.46598 19.79297,-4.39844 5.44599,-2.93245 10.36891,-7.5919 14.76758,-13.98046 l 2.82812,15.08007 h 14.13868 v -61.89453 h -45.87305 v 19.63672 h 26.07812 c -0.41892,4.08449 -1.5184,7.74946 -3.29882,10.9961 -1.78042,3.14191 -3.82288,5.60239 -6.12696,7.38281 -2.30406,1.78042 -4.81802,3.24835 -7.54101,4.40039 -2.723,1.0473 -5.07848,1.7803 -7.06836,2.19922 -1.88515,0.31419 -3.56112,0.4707 -5.02735,0.4707 -9.53047,0 -17.38536,-3.76995 -23.56445,-11.31055 -6.07437,-7.54059 -9.11133,-17.17643 -9.11133,-28.90625 0,-12.35819 2.82699,-22.04556 8.48243,-29.0625 5.76017,-7.01694 13.61505,-10.52539 23.56445,-10.52539 14.03388,0 23.14672,6.1274 27.33594,18.38086 h 22.15039 c -1.46623,-11.83454 -6.65065,-21.20889 -15.55274,-28.12109 -8.90209,-6.91222 -20.26542,-10.36719 -34.08984,-10.36719 z m 71.71875,2.19922 v 114.52148 h 23.56445 V 817.27764 Z m 48.78515,0 v 114.52148 h 23.56446 v -89.23047 l 20.58008,89.23047 h 23.56445 l 20.26562,-89.23047 v 89.23047 h 23.56446 V 817.27764 h -35.50391 l -20.10937,91.11523 -20.73633,-91.11523 z m 136.53907,0 v 114.52148 h 23.56445 v -40.84375 h 29.37695 c 10.47304,0 18.85094,-3.45692 25.13477,-10.36914 6.28383,-6.9122 9.42578,-16.1796 9.42578,-27.80468 0,-11.52036 -3.19347,-20.31822 -9.58203,-26.39258 -6.28383,-6.07437 -15.39667,-9.11133 -27.33594,-9.11133 z m 23.56445,19.63672 h 21.99219 c 6.28382,0 10.89176,1.41251 13.82422,4.24023 3.03718,2.82773 4.55664,7.17416 4.55664,13.03906 0,11.41562 -6.1274,17.125 -18.38086,17.125 H 636.0625 Z"
         style="font-style:normal;font-variant:normal;font-weight:600;font-stretch:normal;font-size:medium;line-height:1.25;font-family:FreeSans;-inkscape-font-specification:'FreeSans Semi-Bold';letter-spacing:0px;word-spacing:0px;fill:#333333;fill-opacity:1;stroke:none;stroke-width:1.84096" />
    </g>
  </g>
</svg>
