<?xml version="1.0" encoding="UTF-8" standalone="no"?>
<svg
   xmlns:dc="http://purl.org/dc/elements/1.1/"
   xmlns:cc="http://creativecommons.org/ns#"
   xmlns:rdf="http://www.w3.org/1999/02/22-rdf-syntax-ns#"
   xmlns:svg="http://www.w3.org/2000/svg"
   xmlns="http://www.w3.org/2000/svg"
   xmlns:sodipodi="http://sodipodi.sourceforge.net/DTD/sodipodi-0.dtd"
   xmlns:inkscape="http://www.inkscape.org/namespaces/inkscape"
   viewBox="0 0 200 200"
   version="1.1"
   id="svg4"
   sodipodi:docname="js.svg"
   inkscape:version="1.0.2 (1.0.2+r75+1)"
   width="200"
   height="200">
  <metadata
     id="metadata10">
    <rdf:RDF>
      <cc:Work
         rdf:about="">
        <dc:format>image/svg+xml</dc:format>
        <dc:type
           rdf:resource="http://purl.org/dc/dcmitype/StillImage" />
        <dc:title></dc:title>
      </cc:Work>
    </rdf:RDF>
  </metadata>
  <defs
     id="defs8" />
  <sodipodi:namedview
     pagecolor="#ffffff"
     bordercolor="#666666"
     borderopacity="1"
     objecttolerance="10"
     gridtolerance="10"
     guidetolerance="10"
     inkscape:pageopacity="0"
     inkscape:pageshadow="2"
     inkscape:window-width="1366"
     inkscape:window-height="700"
     id="namedview6"
     showgrid="false"
     inkscape:zoom="0.4609375"
     inkscape:cx="-61.288136"
     inkscape:cy="256"
     inkscape:window-x="0"
     inkscape:window-y="32"
     inkscape:window-maximized="1"
     inkscape:current-layer="layer1"
     inkscape:document-rotation="0" />
  <g
     inkscape:groupmode="layer"
     id="layer1"
     inkscape:label="Layer 1">
    <g
       id="g11"
       transform="matrix(0.44642857,0,0,0.44642857,3.2e-7,-14.285714)">
      <path
         d="M 400,32 H 48 C 21.5,32 0,53.5 0,80 v 352 c 0,26.5 21.5,48 48,48 h 352 c 26.5,0 48,-21.5 48,-48 V 80 C 448,53.5 426.5,32 400,32 Z"
         id="path32"
         style="fill:#d4aa00" />
      <path
         d="m 341,235.30078 c -37.5,0 -61.59961,23.99961 -61.59961,55.59961 0,34.3 20.1,50.6 50.5,63.5 l 10.5,4.5 c 19.3,8.5 30.69922,13.6 30.69922,28 0,12.1 -11.19961,20.79883 -28.59961,20.79883 -20.7,0 -32.5,-10.89961 -41.5,-25.59961 l -34.30078,19.80078 c 12.3,24.4 37.60117,43 76.70117,43 39.9,0 69.69922,-20.79961 69.69922,-58.59961 0,-35.2 -20.10039,-50.90117 -55.90039,-66.20117 l -10.5,-4.5 c -18.1,-7.9 -25.89844,-12.99961 -25.89844,-25.59961 0,-10.2 7.79961,-18 20.09961,-18 12.1,0 19.89961,5.1 27.09961,18 l 32.80078,-21 C 387.00078,244.6 367.8,235.30078 341,235.30078 Z m -139.30078,2.39844 v 143.10156 c 0,21.1 -8.79961,26.5 -22.59961,26.5 -14.5,0 -20.49961,-9.90156 -27.09961,-21.60156 l -34.30078,20.70117 c 10,21.1 29.50117,38.5 63.20117,38.5 37.3,0 62.90039,-19.9 62.90039,-63.5 V 237.69922 Z"
         id="path30" />
    </g>
  </g>
</svg>
