<?xml version="1.0" encoding="UTF-8" standalone="no"?>
<svg
   xmlns:dc="http://purl.org/dc/elements/1.1/"
   xmlns:cc="http://creativecommons.org/ns#"
   xmlns:rdf="http://www.w3.org/1999/02/22-rdf-syntax-ns#"
   xmlns:svg="http://www.w3.org/2000/svg"
   xmlns="http://www.w3.org/2000/svg"
   xmlns:sodipodi="http://sodipodi.sourceforge.net/DTD/sodipodi-0.dtd"
   xmlns:inkscape="http://www.inkscape.org/namespaces/inkscape"
   viewBox="0 0 200 200"
   version="1.1"
   id="svg4"
   sodipodi:docname="laravel.svg"
   inkscape:version="1.0.2 (1.0.2+r75+1)"
   width="200"
   height="200">
  <metadata
     id="metadata10">
    <rdf:RDF>
      <cc:Work
         rdf:about="">
        <dc:format>image/svg+xml</dc:format>
        <dc:type
           rdf:resource="http://purl.org/dc/dcmitype/StillImage" />
        <dc:title></dc:title>
      </cc:Work>
    </rdf:RDF>
  </metadata>
  <defs
     id="defs8" />
  <sodipodi:namedview
     pagecolor="#ffffff"
     bordercolor="#666666"
     borderopacity="1"
     objecttolerance="10"
     gridtolerance="10"
     guidetolerance="10"
     inkscape:pageopacity="0"
     inkscape:pageshadow="2"
     inkscape:window-width="1366"
     inkscape:window-height="700"
     id="namedview6"
     showgrid="false"
     inkscape:zoom="0.65186406"
     inkscape:cx="159.25602"
     inkscape:cy="343.77636"
     inkscape:window-x="0"
     inkscape:window-y="32"
     inkscape:window-maximized="1"
     inkscape:current-layer="layer1"
     inkscape:document-rotation="0" />
  <g
     inkscape:groupmode="layer"
     id="layer1"
     inkscape:label="Layer 1">
    <path
       inkscape:connector-curvature="0"
       d="m 199.22325,95.487019 c -1.31234,-1.499827 -19.62268,-24.403371 -22.84105,-28.277913 -3.21837,-3.874542 -4.81193,-3.187123 -6.78045,-2.905906 -1.99976,0.281216 -25.15328,4.187005 -27.84046,4.624453 -2.68718,0.468695 -4.37448,1.531069 -2.71843,3.843296 1.46858,2.062256 16.68553,23.65346 20.06013,28.402891 L 98.57889,115.67213 50.397083,35.212888 C 48.491058,32.369474 48.084856,31.369592 43.710373,31.588316 39.33589,31.775794 5.9335863,34.556715 3.5588668,34.775439 1.1841474,34.962917 -1.4405424,36.025292 0.93417695,41.649627 3.3088964,47.273963 41.241915,129.0143 42.304289,131.38902 c 1.062375,2.37472 3.81205,6.24927 10.248789,4.68695 6.592971,-1.59356 29.465269,-7.56161 41.963792,-10.84247 6.59297,11.96734 20.06013,36.21447 22.55984,39.68281 3.31211,4.6557 5.62433,3.87454 10.71748,2.31223 3.99953,-1.21861 62.36763,-22.21613 64.99232,-23.2785 2.62469,-1.09362 4.2495,-1.84353 2.46846,-4.49947 -1.31234,-1.93727 -16.71677,-22.55983 -24.77832,-33.37106 5.53059,-1.46857 25.18452,-6.686711 27.27802,-7.280391 2.46846,-0.62492 2.81217,-1.81228 1.46858,-3.3121 z M 89.173751,117.98436 c -0.718665,0.15623 -34.620909,8.28027 -36.433195,8.68647 -1.812286,0.4062 -1.812286,0.21873 -2.03101,-0.4062 C 50.490822,125.6397 10.401809,42.930726 9.8393748,41.899598 c -0.5624336,-1.031129 -0.5311873,-1.843533 0,-1.843533 0.5311872,0 32.0274662,-2.812167 33.1210872,-2.87466 1.124867,-0.06249 0.999881,0.187478 1.406083,0.874897 0,0 44.43225,76.678438 45.182162,78.022028 0.812404,1.34359 0.343709,1.7498 -0.374956,1.90603 z m 95.613709,17.93538 c 0.53118,0.84365 1.09362,1.40608 -0.62493,1.99976 -1.6873,0.62493 -57.39947,19.40396 -58.46184,19.87265 -1.09362,0.4687 -1.93727,0.62493 -3.31211,-1.40608 -1.37484,-2.03101 -19.4977,-33.37106 -19.4977,-33.37106 l 58.99303,-15.34193 c 1.46858,-0.4687 1.93727,-0.78116 2.87466,0.68741 0.90615,1.49983 19.4977,26.7156 20.02889,27.55925 z m 3.7808,-41.901301 c -1.31234,0.281216 -22.99728,5.65558 -22.99728,5.65558 L 147.85432,75.364393 c -0.49994,-0.718665 -0.90614,-1.406084 0.34371,-1.562316 1.24985,-0.156231 21.37247,-3.812049 22.27862,-3.999527 0.90614,-0.218724 1.6873,-0.468695 2.81217,1.062374 1.12486,1.531069 16.43555,20.935027 17.02923,21.684938 0.56244,0.718665 -0.43744,1.156113 -1.74979,1.468577 z"
       id="path2"
       style="fill:#ff5555;stroke-width:0.312463" />
  </g>
</svg>
