<?xml version="1.0" encoding="UTF-8" standalone="no"?>
<svg
   xmlns:dc="http://purl.org/dc/elements/1.1/"
   xmlns:cc="http://creativecommons.org/ns#"
   xmlns:rdf="http://www.w3.org/1999/02/22-rdf-syntax-ns#"
   xmlns:svg="http://www.w3.org/2000/svg"
   xmlns="http://www.w3.org/2000/svg"
   xmlns:sodipodi="http://sodipodi.sourceforge.net/DTD/sodipodi-0.dtd"
   xmlns:inkscape="http://www.inkscape.org/namespaces/inkscape"
   viewBox="0 0 200 200"
   version="1.1"
   id="svg4"
   sodipodi:docname="php.svg"
   inkscape:version="1.0.2 (1.0.2+r75+1)"
   width="200"
   height="200">
  <metadata
     id="metadata10">
    <rdf:RDF>
      <cc:Work
         rdf:about="">
        <dc:format>image/svg+xml</dc:format>
        <dc:type
           rdf:resource="http://purl.org/dc/dcmitype/StillImage" />
        <dc:title></dc:title>
      </cc:Work>
    </rdf:RDF>
  </metadata>
  <defs
     id="defs8" />
  <sodipodi:namedview
     pagecolor="#ffffff"
     bordercolor="#666666"
     borderopacity="1"
     objecttolerance="10"
     gridtolerance="10"
     guidetolerance="10"
     inkscape:pageopacity="0"
     inkscape:pageshadow="2"
     inkscape:window-width="1366"
     inkscape:window-height="700"
     id="namedview6"
     showgrid="false"
     inkscape:zoom="1.046875"
     inkscape:cx="389.73134"
     inkscape:cy="256"
     inkscape:window-x="0"
     inkscape:window-y="32"
     inkscape:window-maximized="1"
     inkscape:current-layer="layer1"
     inkscape:document-rotation="0" />
  <g
     inkscape:groupmode="layer"
     id="layer1"
     inkscape:label="Layer 1"
     transform="translate(0,488)">
    <g
       id="g887"
       transform="matrix(0.3125,0,0,0.3125,0,-468)">
      <path
         id="path847"
         d="m 320,104.5 c 171.4,0 303.19922,72.2 303.19922,151.5 C 623.19922,335.3 491.3,407.5 320,407.5 148.6,407.5 16.800781,335.3 16.800781,256 16.800781,176.7 148.7,104.5 320,104.5 Z"
         style="fill:#8993be;fill-opacity:1"
         inkscape:connector-curvature="0" />
      <path
         id="path3741"
         d="M 320,87.699219 C 143.3,87.699219 0,163 0,256 0,349 143.3,424.30078 320,424.30078 496.7,424.30078 640,349 640,256 640,163 496.7,87.699219 320,87.699219 Z M 320,104.5 c 171.4,0 303.19922,72.2 303.19922,151.5 C 623.19922,335.3 491.3,407.5 320,407.5 148.6,407.5 16.800781,335.3 16.800781,256 16.800781,176.7 148.7,104.5 320,104.5 Z m -36.90039,32.19922 -32.69922,168.60156 h 36.5 l 18.79883,-96.60156 c 29.7,0 42.00039,-1.19844 47.40039,4.60156 5.6,6 2.70078,12.6 -12.69922,92 h 37 c 16,-82.1 23.09883,-99.50156 8.29883,-113.10156 -14.1,-13 -43.29883,-10.69922 -74.79883,-10.69922 l 8.69922,-44.80078 z m -153,44.90039 -32.699219,168.70117 H 134.09961 L 142.80078,305.5 c 41.1,0 66.59922,3.00039 90.19922,-19.09961 26.1,-24 32.90078,-66.69961 14.30078,-88.09961 -9.7,-11.2 -25.3,-16.70117 -46.5,-16.70117 z m 286.90039,0 -32.80078,168.70117 H 421 L 429.69922,305.5 c 43.2,0 67.10117,2.50039 90.20117,-19.09961 26.1,-24 32.89883,-66.69961 14.29883,-88.09961 -9.7,-11.2 -25.3,-16.70117 -46.5,-16.70117 z m -235.25,26.47461 c 26.55796,0.0819 42.46172,3.22578 36.44922,34.42578 -7.9,40.5 -35.79961,36.30078 -70.09961,36.30078 l 13.70117,-70.60156 c 7.125,0 13.82046,-0.1439 19.94922,-0.125 z m 286.875,0 C 495.24072,208.1561 511.0125,211.3 505,242.5 c -8,41.1 -36.69961,36.30078 -70.09961,36.30078 l 13.69922,-70.60156 c 7.1625,0 13.8833,-0.1439 20.02539,-0.125 z"
         style="fill:#232531;fill-opacity:1"
         inkscape:connector-curvature="0" />
    </g>
  </g>
</svg>
