<?xml version="1.0" encoding="UTF-8" standalone="no"?>
<svg
   xmlns:dc="http://purl.org/dc/elements/1.1/"
   xmlns:cc="http://creativecommons.org/ns#"
   xmlns:rdf="http://www.w3.org/1999/02/22-rdf-syntax-ns#"
   xmlns:svg="http://www.w3.org/2000/svg"
   xmlns="http://www.w3.org/2000/svg"
   xmlns:sodipodi="http://sodipodi.sourceforge.net/DTD/sodipodi-0.dtd"
   xmlns:inkscape="http://www.inkscape.org/namespaces/inkscape"
   viewBox="0 0 200 200"
   version="1.1"
   id="svg4"
   sodipodi:docname="ubuntu.svg"
   inkscape:version="1.0.2 (1.0.2+r75+1)"
   width="200"
   height="200">
  <metadata
     id="metadata10">
    <rdf:RDF>
      <cc:Work
         rdf:about="">
        <dc:format>image/svg+xml</dc:format>
        <dc:type
           rdf:resource="http://purl.org/dc/dcmitype/StillImage" />
        <dc:title></dc:title>
      </cc:Work>
    </rdf:RDF>
  </metadata>
  <defs
     id="defs8" />
  <sodipodi:namedview
     pagecolor="#ffffff"
     bordercolor="#666666"
     borderopacity="1"
     objecttolerance="10"
     gridtolerance="10"
     guidetolerance="10"
     inkscape:pageopacity="0"
     inkscape:pageshadow="2"
     inkscape:window-width="1366"
     inkscape:window-height="700"
     id="namedview6"
     showgrid="false"
     inkscape:zoom="0.4609375"
     inkscape:cx="-37.288136"
     inkscape:cy="256"
     inkscape:window-x="0"
     inkscape:window-y="32"
     inkscape:window-maximized="1"
     inkscape:current-layer="layer1"
     inkscape:document-rotation="0" />
  <g
     inkscape:groupmode="layer"
     id="layer1"
     inkscape:label="Layer 1">
    <g
       id="g13"
       transform="matrix(0.40322581,0,0,0.40322581,-8.8e-7,-3.2258074)">
      <g
         id="g45">
        <path
           style="fill:#d45500"
           id="path40"
           d="M 248,8 C 111,8 0,119 0,256 0,393 111,504 248,504 385,504 496,393 496,256 496,119 385,8 248,8 Z" />
        <path
           style="fill:#ffffff"
           id="path38"
           d="M 327.60938,85.052734 C 316.85751,85.313568 306.47422,91.025 300.69922,101 c -8.8,15.2 -3.59883,34.69961 11.70117,43.59961 15.2,8.8 34.7,3.50078 43.5,-11.69922 8.8,-15.3 3.59883,-34.799609 -11.70117,-43.599609 -5.225,-3.025 -10.95792,-4.384674 -16.58984,-4.248047 z m -79.39649,33.990236 c -17.05128,-0.0205 -38.56055,3.04687 -61.01367,14.15625 l 22.5,40.30078 c 57.6,-26.8 123.50039,12.40039 128.90039,74.40039 l 46,-0.59961 c -2.2,-34.6 -17.09922,-65.6 -40.19922,-88.5 -26.7,10.3 -56.1,-6.7 -60.5,-35 -2.7625,-0.74375 -16.36271,-4.73462 -35.6875,-4.75781 z M 172,142 c -27.4,18.4 -47.9,46.29961 -56.5,79.09961 22.4,18 22.3,52.00039 0,69.90039 8.7,32.7 29.1,60.7 56.5,79 l 23.69922,-39.59961 c -51.5,-36.3 -51.5,-112.50078 0,-148.80078 z M 87.400391,224.09961 C 69.800391,224.09961 55.5,238.4 55.5,256 c 0,17.6 14.300391,31.90039 31.900391,31.90039 17.599999,0 31.900389,-14.30039 31.900389,-31.90039 0,-17.6 -14.30039,-31.90039 -31.900389,-31.90039 z m 251.298829,40 c -5.5,62.7 -71.89844,100.90039 -128.89844,74.40039 l -22.5,40.30078 c 47.8,23.7 91.49922,10.79844 96.69922,9.39844 4.4,-28.4 33.8,-45.3 60.5,-35 23,-22.9 38.00078,-53.89844 40.30078,-88.39844 z m -9.70899,99.0293 c -5.63192,-0.12518 -11.36484,1.24648 -16.58984,4.27148 -15.3,8.8 -20.50117,28.29961 -11.70117,43.59961 8.8,15.3 28.2,20.49922 43.5,11.69922 15.3,-8.8 20.50117,-28.29961 11.70117,-43.59961 -5.775,-10.04063 -16.15829,-15.73172 -26.91016,-15.9707 z" />
      </g>
    </g>
  </g>
</svg>
