<?xml version="1.0" encoding="UTF-8" standalone="no"?>
<svg
   xmlns:dc="http://purl.org/dc/elements/1.1/"
   xmlns:cc="http://creativecommons.org/ns#"
   xmlns:rdf="http://www.w3.org/1999/02/22-rdf-syntax-ns#"
   xmlns:svg="http://www.w3.org/2000/svg"
   xmlns="http://www.w3.org/2000/svg"
   xmlns:sodipodi="http://sodipodi.sourceforge.net/DTD/sodipodi-0.dtd"
   xmlns:inkscape="http://www.inkscape.org/namespaces/inkscape"
   enable-background="new -0.424 -0.244 758 171"
   height="90"
   width="90"
   version="1.1"
   y="0px"
   x="0px"
   viewBox="-0.424 -0.244 90 90"
   id="svg27"
   sodipodi:docname="budgie-cof.svg"
   inkscape:version="0.92.4 (unknown)">
  <defs
     id="defs31" />
  <sodipodi:namedview
     pagecolor="#ffffff"
     bordercolor="#666666"
     borderopacity="1"
     objecttolerance="10"
     gridtolerance="10"
     guidetolerance="10"
     inkscape:pageopacity="0"
     inkscape:pageshadow="2"
     inkscape:window-width="1366"
     inkscape:window-height="701"
     id="namedview29"
     showgrid="false"
     inkscape:zoom="3.7083822"
     inkscape:cx="-39.051171"
     inkscape:cy="42.618714"
     inkscape:window-x="0"
     inkscape:window-y="33"
     inkscape:window-maximized="1"
     inkscape:current-layer="svg27" />
  <title
     id="title2">Budgie CoF</title>
  <metadata
     id="metadata4">
    <rdf:RDF>
      <cc:Work
         rdf:about="">
        <dc:format>image/svg+xml</dc:format>
        <dc:type
           rdf:resource="http://purl.org/dc/dcmitype/StillImage" />
        <dc:title>Budgie CoF</dc:title>
        <dc:description>Ubuntu CoF overlaid on budgie-remix logo</dc:description>
        <dc:creator>
          <cc:Agent>
            <dc:title>Joshua &quot;Foggalong&quot; Fogg</dc:title>
          </cc:Agent>
        </dc:creator>
        <dc:contributor>
          <cc:Agent>
            <dc:title>HEXcube</dc:title>
          </cc:Agent>
        </dc:contributor>
        <dc:source>Budgie logo by Yuri Henrique and Ubuntu CoF from Canonical</dc:source>
        <cc:license
           rdf:resource="http://creativecommons.org/licenses/by-sa/4.0/" />
      </cc:Work>
    </rdf:RDF>
  </metadata>
  <circle
     style="fill:#ffffff"
     cy="44.756001"
     cx="44.576"
     r="45"
     id="circle6-3" />
  <path
     d="M 45 0 A 45 45 0 0 0 0 45 A 45 45 0 0 0 45 90 A 45 45 0 0 0 90 45 A 45 45 0 0 0 45 0 z M 60.140625 13 A 6 6 0 0 1 63 13.802734 A 6 6 0 0 1 65.195312 22 A 6 6 0 0 1 57 24.195312 A 6 6 0 0 1 54.802734 16 A 6 6 0 0 1 59.716797 13.005859 A 6 6 0 0 1 60.140625 13 z M 45 19 A 26 26 0 0 1 52.070312 20.005859 A 8 8 0 0 0 56 25.927734 A 8 8 0 0 0 63.082031 26.371094 A 26 26 0 0 1 70.898438 43 L 62.867188 43 A 18 18 0 0 0 45 27 A 18 18 0 0 0 37.798828 28.527344 L 33.791016 21.585938 A 26 26 0 0 1 45 19 z M 30.314453 23.5625 L 34.333984 30.525391 A 18 18 0 0 0 27 45 A 18 18 0 0 0 34.333984 59.474609 L 30.326172 66.414062 A 26 26 0 0 1 19.826172 51.373047 A 8 8 0 0 0 23 45 A 8 8 0 0 0 19.816406 38.625 A 26 26 0 0 1 30.314453 23.5625 z M 15 39 A 6 6 0 0 1 21 45 A 6 6 0 0 1 15 51 A 6 6 0 0 1 9 45 A 6 6 0 0 1 15 39 z M 62.878906 47 L 70.916016 47 A 26 26 0 0 1 63.091797 63.628906 A 8 8 0 0 0 56 64.072266 A 8 8 0 0 0 52.074219 69.992188 A 26 26 0 0 1 45 71 A 26 26 0 0 1 33.789062 68.417969 L 37.792969 61.482422 A 18 18 0 0 0 45 63 A 18 18 0 0 0 62.878906 47 z M 59.857422 65.001953 A 6 6 0 0 1 65.195312 68 A 6 6 0 0 1 63 76.195312 A 6 6 0 0 1 54.802734 74 A 6 6 0 0 1 57 65.802734 A 6 6 0 0 1 59.857422 65.001953 z "
     transform="translate(-0.424,-0.244)"
     id="circle6"
     style="fill:#404552;fill-opacity:1" />
</svg>
